<?xml version="1.0" encoding="UTF-8" standalone="no"?>
<svg
   xmlns:dc="http://purl.org/dc/elements/1.1/"
   xmlns:cc="http://creativecommons.org/ns#"
   xmlns:rdf="http://www.w3.org/1999/02/22-rdf-syntax-ns#"
   xmlns:svg="http://www.w3.org/2000/svg"
   xmlns="http://www.w3.org/2000/svg"
   viewBox="0 0 450.42532 386.92932"
   height="386.92932"
   width="450.42532"
   xml:space="preserve"
   id="svg2"
   version="1.1"><metadata
     id="metadata8"><rdf:RDF><cc:Work
         rdf:about=""><dc:format>image/svg+xml</dc:format><dc:type
           rdf:resource="http://purl.org/dc/dcmitype/StillImage" /></cc:Work></rdf:RDF></metadata><defs
     id="defs6"><clipPath
       id="clipPath20"
       clipPathUnits="userSpaceOnUse"><path
         id="path18"
         d="M 0,0 H 1190.55 V 841.89 H 0 Z" /></clipPath><clipPath
       id="clipPath28"
       clipPathUnits="userSpaceOnUse"><path
         id="path26"
         d="M 0,841.89 H 1190.55 V 0 H 0 Z" /></clipPath><clipPath
       id="clipPath48"
       clipPathUnits="userSpaceOnUse"><path
         id="path46"
         d="M 0,841.89 H 1190.55 V 0 H 0 Z" /></clipPath><clipPath
       id="clipPath80"
       clipPathUnits="userSpaceOnUse"><path
         id="path78"
         d="M 0,841.89 H 1190.55 V 0 H 0 Z" /></clipPath><linearGradient
       id="linearGradient172"
       spreadMethod="pad"
       gradientTransform="matrix(90.99,36.918,36.918,-90.99,658.428,522.119)"
       gradientUnits="userSpaceOnUse"
       y2="0"
       x2="1"
       y1="0"
       x1="0"><stop
         id="stop166"
         offset="0"
         style="stop-opacity:1;stop-color:#344ca7" /><stop
         id="stop168"
         offset="0.66129"
         style="stop-opacity:1;stop-color:#57b7ea" /><stop
         id="stop170"
         offset="1"
         style="stop-opacity:1;stop-color:#57b7ea" /></linearGradient><linearGradient
       id="linearGradient194"
       spreadMethod="pad"
       gradientTransform="matrix(40.3236,98.8565,98.8565,-40.3236,696.283,509.978)"
       gradientUnits="userSpaceOnUse"
       y2="0"
       x2="1"
       y1="0"
       x1="0"><stop
         id="stop188"
         offset="0"
         style="stop-opacity:1;stop-color:#344ca7" /><stop
         id="stop190"
         offset="0.66129"
         style="stop-opacity:1;stop-color:#57b7ea" /><stop
         id="stop192"
         offset="1"
         style="stop-opacity:1;stop-color:#57b7ea" /></linearGradient><linearGradient
       id="linearGradient216"
       spreadMethod="pad"
       gradientTransform="matrix(107.478,43.608,43.608,-107.478,617.623,519.958)"
       gradientUnits="userSpaceOnUse"
       y2="0"
       x2="1"
       y1="0"
       x1="0"><stop
         id="stop210"
         offset="0"
         style="stop-opacity:1;stop-color:#344ca7" /><stop
         id="stop212"
         offset="0.66129"
         style="stop-opacity:1;stop-color:#57b7ea" /><stop
         id="stop214"
         offset="1"
         style="stop-opacity:1;stop-color:#57b7ea" /></linearGradient><linearGradient
       id="linearGradient238"
       spreadMethod="pad"
       gradientTransform="matrix(40.3237,98.8568,98.8568,-40.3237,663.315,523.425)"
       gradientUnits="userSpaceOnUse"
       y2="0"
       x2="1"
       y1="0"
       x1="0"><stop
         id="stop232"
         offset="0"
         style="stop-opacity:1;stop-color:#344ca7" /><stop
         id="stop234"
         offset="0.66129"
         style="stop-opacity:1;stop-color:#57b7ea" /><stop
         id="stop236"
         offset="1"
         style="stop-opacity:1;stop-color:#57b7ea" /></linearGradient><clipPath
       id="clipPath248"
       clipPathUnits="userSpaceOnUse"><path
         id="path246"
         d="M 0,841.89 H 1190.55 V 0 H 0 Z" /></clipPath><linearGradient
       id="linearGradient276"
       spreadMethod="pad"
       gradientTransform="matrix(109.115,109.115,-109.115,109.115,487.61,429.123)"
       gradientUnits="userSpaceOnUse"
       y2="0"
       x2="1"
       y1="0"
       x1="0"><stop
         id="stop270"
         offset="0"
         style="stop-opacity:1;stop-color:#344ca7" /><stop
         id="stop272"
         offset="0.66129"
         style="stop-opacity:1;stop-color:#57b7ea" /><stop
         id="stop274"
         offset="1"
         style="stop-opacity:1;stop-color:#57b7ea" /></linearGradient><linearGradient
       id="linearGradient298"
       spreadMethod="pad"
       gradientTransform="matrix(101.841,101.841,-101.841,101.841,507.999,442.358)"
       gradientUnits="userSpaceOnUse"
       y2="0"
       x2="1"
       y1="0"
       x1="0"><stop
         id="stop292"
         offset="0"
         style="stop-opacity:1;stop-color:#344ca7" /><stop
         id="stop294"
         offset="0.66129"
         style="stop-opacity:1;stop-color:#57b7ea" /><stop
         id="stop296"
         offset="1"
         style="stop-opacity:1;stop-color:#57b7ea" /></linearGradient></defs><g
     transform="matrix(1.3333333,0,0,-1.3333333,0,386.92933)"
     id="g10"><g
       transform="translate(-433.063,-395.434)"
       id="g12"><g
         id="g14"><g
           clip-path="url(#clipPath20)"
           id="g16"><g
             id="g22"><g
               clip-path="url(#clipPath28)"
               id="g24"><g
                 transform="translate(181.095,781.811)"
                 id="g30"><path
                   id="path32"
                   style="fill:#ffffff;fill-opacity:1;fill-rule:nonzero;stroke:none"
                   d="m 0,0 c 0,-18.072 -14.65,-32.724 -32.724,-32.724 -18.073,0 -32.724,14.652 -32.724,32.724 0,18.072 14.651,32.725 32.724,32.725 C -14.65,32.725 0,18.072 0,0" /></g><g
                 transform="translate(181.095,781.811)"
                 id="g34"><path
                   id="path36"
                   style="fill:none;stroke:#f2541b;stroke-width:1;stroke-linecap:butt;stroke-linejoin:miter;stroke-miterlimit:10;stroke-dasharray:none;stroke-opacity:1"
                   d="m 0,0 c 0,-18.072 -14.65,-32.724 -32.724,-32.724 -18.073,0 -32.724,14.652 -32.724,32.724 0,18.072 14.651,32.725 32.724,32.725 C -14.65,32.725 0,18.072 0,0 Z" /></g></g></g><text
             id="text40"
             style="font-variant:normal;font-weight:normal;font-stretch:normal;font-size:30.69009972px;font-family:'Helvetica 55 Roman';-inkscape-font-specification:HelveticaNeue-Roman;writing-mode:lr-tb;fill:#231f20;fill-opacity:1;fill-rule:nonzero;stroke:none"
             transform="matrix(1,0,0,-1,127,773.175)"><tspan
               id="tspan38"
               y="0"
               x="0 17.063696 25.595543"># 4</tspan></text>
<g
             id="g42"><g
               clip-path="url(#clipPath48)"
               id="g44"><g
                 transform="translate(46.231,767.694)"
                 id="g50"><path
                   id="path52"
                   style="fill:#f2541b;fill-opacity:1;fill-rule:nonzero;stroke:none"
                   d="m 0,0 v -0.865 h -18.871 v 30.832 h 0.864 l 0,-29.967 z" /></g><g
                 transform="translate(61.3892,766.96)"
                 id="g54"><path
                   id="path56"
                   style="fill:#f2541b;fill-opacity:1;fill-rule:nonzero;stroke:none"
                   d="M 0,0 C 8.291,0 13.257,6.391 13.343,15.285 13.257,24.182 8.291,30.572 0,30.572 c -8.291,0 -13.257,-6.39 -13.343,-15.287 C -13.257,6.391 -8.291,0 0,0 m 0,31.436 c 9.241,0 14.207,-7.383 14.207,-16.151 C 14.207,6.52 9.241,-0.863 0,-0.863 c -9.241,0 -14.207,7.383 -14.207,16.148 0,8.768 4.966,16.151 14.207,16.151" /></g><g
                 transform="translate(93.2168,780.39)"
                 id="g58"><path
                   id="path60"
                   style="fill:#f2541b;fill-opacity:1;fill-rule:nonzero;stroke:none"
                   d="m 0,0 v 0.863 h 12.825 v -14.467 h -0.864 v 7.688 h -0.086 c -1.598,-5.227 -6.305,-8.377 -12.307,-8.377 -9.543,0 -14.466,7.254 -14.466,16.148 0,9.026 5.398,16.151 14.466,16.151 6.91,0 11.789,-4.059 12.782,-10.363 h -0.864 c -1.079,5.744 -5.527,9.5 -11.918,9.5 -8.593,0 -13.602,-6.909 -13.602,-15.288 0,-8.376 4.62,-15.285 13.732,-15.285 6.823,0 12.263,5.008 12.263,11.832 l 0,1.598 z" /></g></g></g><text
             id="text72"
             style="font-variant:normal;font-weight:300;font-stretch:normal;font-size:10.67399979px;font-family:'Montserrat Light';-inkscape-font-specification:Montserrat-Light;writing-mode:lr-tb;fill:#110f0d;fill-opacity:1;fill-rule:nonzero;stroke:none"
             transform="matrix(1,0,0,-1,751.764,20.3613)"><tspan
               id="tspan62"
               y="0"
               x="0 10.268388 17.953669 23.226624 27.079939 35.352287 43.037567 47.606041 54.597511 61.887852 65.741165 69.594482 73.447792 81.794861 87.067818 94.358162 102.63051 110.88152 117.58479 120.78699 127.77846 135.46373 147.88828">worldofcalligraphy.com </tspan><tspan
               id="tspan64"
               y="0"
               x="155.50951">|</tspan><tspan
               id="tspan66"
               y="0"
               x="159.68304 167.30428 174.64799 181.63947 189.89046 197.33023 209.75478 218.00578 225.29611 233.56847 245.66211 254.00917 266.43372 273.72406 277.57736 281.43069 284.63287 291.62436 299.30963 311.73416"> kchemnad@gmail.com </tspan><tspan
               id="tspan68"
               y="0"
               x="319.35541">|</tspan><tspan
               id="tspan70"
               y="0"
               x="323.52893 331.15018 338.29108 345.78424 353.05322 357.88855 364.91205 371.93552 379.42868 384.26401 391.75714 399.25031 404.08563 411.57877"> +971556196195</tspan></text>
<g
             id="g74"><g
               clip-path="url(#clipPath80)"
               id="g76"><g
                 transform="translate(745.543,35.1768)"
                 id="g82"><path
                   id="path84"
                   style="fill:none;stroke:#949595;stroke-width:0.58899999;stroke-linecap:butt;stroke-linejoin:miter;stroke-miterlimit:10;stroke-dasharray:none;stroke-opacity:1"
                   d="M 0,0 H 431.037" /></g><g
                 transform="translate(336.446,241.444)"
                 id="g86"><path
                   id="path88"
                   style="fill:#9ba1a6;fill-opacity:1;fill-rule:nonzero;stroke:none"
                   d="M 0,0 H 29.619 V -8.759 H 10.689 V -21.23 h 17.817 v -8.76 H 10.689 V -53.002 H 0 Z" /></g><g
                 transform="translate(396.353,218.284)"
                 id="g90"><path
                   id="path92"
                   style="fill:#9ba1a6;fill-opacity:1;fill-rule:nonzero;stroke:none"
                   d="m 0,0 h 4.453 c 5.123,0 8.018,2.227 8.018,7.943 0,4.899 -2.598,7.349 -7.423,7.349 H 0 Z M -10.689,23.16 H 9.057 c 8.759,0 14.103,-4.601 14.103,-13.658 0,-7.053 -2.82,-11.803 -8.834,-13.065 v -0.149 c 7.276,-0.965 8.389,-4.974 8.537,-16.183 0.074,-5.568 0.371,-8.462 2.376,-9.501 v -0.446 H 13.658 c -1.039,1.485 -1.262,3.488 -1.336,5.567 l -0.297,10.171 c -0.148,4.157 -2.004,6.68 -6.309,6.68 H 0 v -22.418 h -10.689 z" /></g><g
                 transform="translate(471.401,241.444)"
                 id="g94"><path
                   id="path96"
                   style="fill:#9ba1a6;fill-opacity:1;fill-rule:nonzero;stroke:none"
                   d="M 0,0 V -8.759 H -18.93 V -21.23 h 17.817 v -8.76 H -18.93 V -44.242 H 0.742 v -8.76 H -29.619 V 0 Z" /></g><path
                 id="path98"
                 style="fill:#9ba1a6;fill-opacity:1;fill-rule:nonzero;stroke:none"
                 d="m 492.854,241.444 h 10.69 v -53.002 h -10.69 z" /><g
                 transform="translate(549.864,225.708)"
                 id="g100"><path
                   id="path102"
                   style="fill:#9ba1a6;fill-opacity:1;fill-rule:nonzero;stroke:none"
                   d="m 0,0 c 0,3.934 -1.781,8.907 -6.087,8.907 -5.196,0 -7.274,-5.344 -7.274,-18.557 0,-12.77 1.187,-20.787 7.348,-20.787 2.525,0 6.607,2.748 6.607,8.462 v 5.42 h -7.052 v 7.869 h 17.297 v -28.58 H 2.97 v 4.899 H 2.821 c -2.524,-4.156 -6.161,-5.938 -11.134,-5.938 -13.14,0 -15.738,9.799 -15.738,28.134 0,17.817 4.156,26.947 17.816,26.947 11.729,0 16.479,-6.012 16.479,-16.776 z" /></g><g
                 transform="translate(582.452,241.444)"
                 id="g104"><path
                   id="path106"
                   style="fill:#9ba1a6;fill-opacity:1;fill-rule:nonzero;stroke:none"
                   d="M 0,0 H 10.689 V -20.266 H 23.161 V 0 H 33.852 V -53.002 H 23.161 v 23.531 H 10.689 V -53.002 H 0 Z" /></g><g
                 transform="translate(669.602,241.444)"
                 id="g108"><path
                   id="path110"
                   style="fill:#9ba1a6;fill-opacity:1;fill-rule:nonzero;stroke:none"
                   d="M 0,0 V -8.759 H -11.58 V -53.002 H -22.271 V -8.759 H -33.852 V 0 Z" /></g><g
                 transform="translate(721.712,188.442)"
                 id="g112"><path
                   id="path114"
                   style="fill:#9ba1a6;fill-opacity:1;fill-rule:nonzero;stroke:none"
                   d="M 0,0 V 53.002 H 10.689 V 8.76 h 18.93 V 0 Z" /></g><g
                 transform="translate(770.929,188.442)"
                 id="g116"><path
                   id="path118"
                   style="fill:#9ba1a6;fill-opacity:1;fill-rule:nonzero;stroke:none"
                   d="M 0,0 V 53.002 H 10.689 V 8.76 h 18.93 V 0 Z" /></g><g
                 transform="translate(842.786,223.555)"
                 id="g120"><path
                   id="path122"
                   style="fill:#9ba1a6;fill-opacity:1;fill-rule:nonzero;stroke:none"
                   d="m 0,0 c 0,7.72 -1.559,11.061 -6.385,11.061 -5.418,0 -6.68,-5.419 -6.68,-20.415 0,-16.034 2.227,-18.929 6.829,-18.929 3.861,0 6.681,2.005 6.681,13.436 h 10.69 c 0,-11.431 -2.821,-21.304 -16.851,-21.304 -16.034,0 -18.039,11.431 -18.039,27.54 0,16.108 2.005,27.541 18.039,27.541 C 9.576,18.93 10.689,7.72 10.689,0 Z" /></g><g
                 transform="translate(338.093,337.251)"
                 id="g124"><path
                   id="path126"
                   style="fill:#00318e;fill-opacity:1;fill-rule:nonzero;stroke:none"
                   d="M 0,0 H 22.182 V -48.594 H 51.883 V -65.795 H 0 Z" /></g><g
                 transform="translate(437.112,289.926)"
                 id="g128"><path
                   id="path130"
                   style="fill:#00318e;fill-opacity:1;fill-rule:nonzero;stroke:none"
                   d="m 0,0 c 2.223,1.347 3.994,3.257 5.311,5.733 1.315,2.475 1.973,5.373 1.973,8.695 0,3.321 -0.658,6.218 -1.973,8.694 -1.317,2.475 -3.088,4.385 -5.311,5.733 -2.225,1.347 -4.716,2.021 -7.473,2.021 -2.757,0 -5.249,-0.674 -7.472,-2.021 -2.225,-1.348 -3.994,-3.258 -5.311,-5.733 -1.315,-2.476 -1.973,-5.373 -1.973,-8.694 0,-3.322 0.658,-6.22 1.973,-8.695 1.317,-2.476 3.086,-4.386 5.311,-5.733 2.223,-1.349 4.715,-2.021 7.472,-2.021 2.757,0 5.248,0.672 7.473,2.021 m -26.553,-15.556 c -5.639,2.946 -10.056,7.034 -13.253,12.266 -3.196,5.232 -4.794,11.139 -4.794,17.718 0,6.579 1.598,12.485 4.794,17.718 3.197,5.23 7.614,9.32 13.253,12.265 5.64,2.945 11.998,4.418 19.08,4.418 7.08,0 13.442,-1.473 19.08,-4.418 5.64,-2.945 10.058,-7.035 13.253,-12.265 3.197,-5.233 4.794,-11.139 4.794,-17.718 0,-6.579 -1.597,-12.486 -4.794,-17.718 -3.195,-5.232 -7.613,-9.32 -13.253,-12.266 -5.638,-2.944 -12,-4.418 -19.08,-4.418 -7.082,0 -13.44,1.474 -19.08,4.418" /></g><g
                 transform="translate(518.367,306.14)"
                 id="g132"><path
                   id="path134"
                   style="fill:#00318e;fill-opacity:1;fill-rule:nonzero;stroke:none"
                   d="m 0,0 h 19.269 v -27.822 c -3.887,-2.695 -8.398,-4.762 -13.536,-6.203 -5.138,-1.441 -10.183,-2.163 -15.132,-2.163 -7.018,0 -13.316,1.458 -18.893,4.372 -5.577,2.914 -9.947,6.986 -13.111,12.218 -3.165,5.232 -4.746,11.169 -4.746,17.812 0,6.641 1.581,12.579 4.746,17.811 3.164,5.232 7.581,9.305 13.253,12.219 5.671,2.914 12.078,4.371 19.221,4.371 6.453,0 12.234,-1.081 17.341,-3.242 5.107,-2.162 9.353,-5.311 12.736,-9.447 L 6.956,7.426 c -4.137,4.824 -9.057,7.236 -14.758,7.236 -4.886,0 -8.773,-1.473 -11.654,-4.417 -2.883,-2.946 -4.324,-6.956 -4.324,-12.031 0,-4.95 1.425,-8.929 4.277,-11.937 2.851,-3.007 6.657,-4.511 11.42,-4.511 2.819,0 5.514,0.531 8.083,1.597 z" /></g><path
                 id="path136"
                 style="fill:#00318e;fill-opacity:1;fill-rule:nonzero;stroke:none"
                 d="m 547.128,337.251 h 22.183 v -65.795 h -22.183 z" /><g
                 transform="translate(638.112,288.657)"
                 id="g138"><path
                   id="path140"
                   style="fill:#00318e;fill-opacity:1;fill-rule:nonzero;stroke:none"
                   d="m 0,0 v -17.201 h -60.438 v 13.629 l 30.079,34.965 H -59.498 V 48.594 H -1.504 V 34.965 L -31.582,0 Z" /></g><g
                 transform="translate(686.095,289.926)"
                 id="g142"><path
                   id="path144"
                   style="fill:#00318e;fill-opacity:1;fill-rule:nonzero;stroke:none"
                   d="m 0,0 c 2.225,1.347 3.995,3.257 5.311,5.733 1.316,2.475 1.974,5.373 1.974,8.695 0,3.321 -0.658,6.218 -1.974,8.694 -1.316,2.475 -3.086,4.385 -5.311,5.733 -2.225,1.347 -4.715,2.021 -7.472,2.021 -2.758,0 -5.249,-0.674 -7.472,-2.021 -2.225,-1.348 -3.995,-3.258 -5.311,-5.733 -1.315,-2.476 -1.974,-5.373 -1.974,-8.694 0,-3.322 0.659,-6.22 1.974,-8.695 1.316,-2.476 3.086,-4.386 5.311,-5.733 2.223,-1.349 4.714,-2.021 7.472,-2.021 2.757,0 5.247,0.672 7.472,2.021 m -26.553,-15.556 c -5.638,2.946 -10.056,7.034 -13.252,12.266 -3.196,5.232 -4.794,11.139 -4.794,17.718 0,6.579 1.598,12.485 4.794,17.718 3.196,5.23 7.614,9.32 13.252,12.265 5.641,2.945 11.999,4.418 19.081,4.418 7.08,0 13.441,-1.473 19.08,-4.418 5.64,-2.945 10.058,-7.035 13.253,-12.265 3.196,-5.233 4.793,-11.139 4.793,-17.718 0,-6.579 -1.597,-12.486 -4.793,-17.718 -3.195,-5.232 -7.613,-9.32 -13.253,-12.266 -5.639,-2.944 -12,-4.418 -19.08,-4.418 -7.082,0 -13.44,1.474 -19.081,4.418" /></g><g
                 transform="translate(788.687,337.251)"
                 id="g146"><path
                   id="path148"
                   style="fill:#00318e;fill-opacity:1;fill-rule:nonzero;stroke:none"
                   d="m 0,0 v -65.795 h -18.234 l -25.002,29.89 v -29.89 H -64.854 V 0 h 18.234 l 25.002,-29.89 V 0 Z" /></g><g
                 transform="translate(854.104,288.186)"
                 id="g150"><path
                   id="path152"
                   style="fill:#00318e;fill-opacity:1;fill-rule:nonzero;stroke:none"
                   d="M 0,0 V -16.73 H -54.703 V 49.064 H -1.222 V 32.334 H -32.897 V 24.627 H -5.075 V 8.648 H -32.897 V 0 Z" /></g></g></g><g
             id="g154"><g
               id="g156"><g
                 id="g162"><g
                   id="g164"><path
                     id="path174"
                     style="fill:url(#linearGradient172);stroke:none"
                     d="m 676.35,512.953 2.791,-17.47 -10.298,15.311 54.85,78.396 -60.369,-79.138 17.304,-24.175 8.969,22.033 -11.017,5.202 41.613,-7.17 13.46,91.95 z" /></g></g></g></g><g
             id="g176"><g
               id="g178"><g
                 id="g184"><g
                   id="g186"><path
                     id="path196"
                     style="fill:url(#linearGradient194);stroke:none"
                     d="m 685.284,520.911 29.294,-3.976 18.651,79.855 z" /></g></g></g></g><g
             id="g198"><g
               id="g200"><g
                 id="g206"><g
                   id="g208"><path
                     id="path218"
                     style="fill:url(#linearGradient216);stroke:none"
                     d="m 620.401,513.108 37.774,-1.037 0.393,-0.01 57.993,72.551 z" /></g></g></g></g><g
             id="g220"><g
               id="g222"><g
                 id="g228"><g
                   id="g230"><path
                     id="path240"
                     style="fill:url(#linearGradient238);stroke:none"
                     d="m 634.436,518.917 26.925,0.807 53.235,63.129 z" /></g></g></g></g><g
             id="g242"><g
               clip-path="url(#clipPath248)"
               id="g244"><g
                 transform="translate(637.452,649.798)"
                 id="g250"><path
                   id="path252"
                   style="fill:#cbcecf;fill-opacity:1;fill-rule:nonzero;stroke:none"
                   d="M 0,0 C 12.058,0 23.658,-1.949 34.512,-5.541 19.861,1.029 3.62,4.688 -13.477,4.688 c -52.06,0 -96.199,-33.895 -111.568,-80.819 11.088,7.11 20.607,12.016 26.542,14.838 C -80.602,-24.982 -43.221,0 0,0" /></g><g
                 transform="translate(529.872,518.144)"
                 id="g254"><path
                   id="path256"
                   style="fill:#cbcecf;fill-opacity:1;fill-rule:nonzero;stroke:none"
                   d="M 0,0 C 9.438,5.758 17.848,9.531 24.187,11.924 26.082,-0.404 29.971,-13.198 36.824,-25.728 29.481,-28.552 21.971,-31.981 14.406,-36.153 7.592,-25.236 2.638,-13.039 0,0 m 107.58,-87.878 c -35.342,0 -66.777,16.707 -86.853,42.649 7.091,3.889 14.414,7.291 21.742,10.264 12.416,-18.3 31.871,-35.62 61.556,-49.581 0,0 -30.421,16.375 -52.281,53.127 38.278,13.76 74,16.393 74,16.393 0,0 -35.349,6.761 -79.041,-7.224 -5.498,10.864 -10.133,23.257 -13.131,37.253 -0.511,2.393 -0.976,4.834 -1.389,7.322 -2.138,12.881 -2.885,27.029 -1.703,42.503 42.944,17.103 79.534,15.549 79.534,15.549 0,0 -35.389,7.383 -78.66,-6.681 0.593,4.914 1.382,9.955 2.375,15.123 C 32.344,85.354 30.315,79.796 28.375,72.697 21.012,70.155 13.443,66.987 5.799,63.046 -2.76,58.634 -11.41,53.249 -19.971,46.714 c -1.013,-4.184 -1.812,-8.451 -2.365,-12.797 -0.623,-4.898 -0.944,-9.891 -0.944,-14.959 0,-6.6 0.553,-13.068 1.6,-19.372 7.419,7.116 15.493,11.784 19.805,14.001 -0.205,2.741 -0.312,5.509 -0.312,8.301 0,9.963 1.335,19.613 3.824,28.788 8.187,4.855 16.383,8.919 24.398,12.323 C 23.472,50.767 21.766,35.679 23.26,19.485 16.971,17.177 8.41,13.438 -1.262,7.608 -7.361,3.933 -13.9,-0.574 -20.594,-6.082 c 0.535,-2.461 1.141,-4.896 1.826,-7.296 3.475,-12.148 8.86,-23.49 15.805,-33.684 2.088,-3.062 4.316,-6.023 6.676,-8.869 21.531,-25.959 54.029,-42.494 90.391,-42.494 35.103,0 66.602,15.414 88.114,39.838 -19.587,-18.174 -45.812,-29.291 -74.638,-29.291" /></g></g></g><g
             id="g258"><g
               id="g260"><g
                 id="g266"><g
                   id="g268"><path
                     id="path278"
                     style="fill:url(#linearGradient276);stroke:none"
                     d="m 462.124,459.599 c 18.362,-39.915 79.631,-50.933 136.856,-24.622 v 0 c 23.959,11.023 43.386,26.849 56.556,44.448 v 0 c -12.238,-13.568 -28.375,-25.563 -47.494,-34.357 v 0 C 552.164,419.37 492.047,430.751 473.763,470.489 v 0 c -12.246,26.631 -2.576,59.227 21.934,85.574 v 0 C 462.923,527.91 448.228,489.809 462.124,459.599" /></g></g></g></g><g
             id="g280"><g
               id="g282"><g
                 id="g288"><g
                   id="g290"><path
                     id="path300"
                     style="fill:url(#linearGradient298);stroke:none"
                     d="m 480.356,475.124 c 17.559,-39.28 77.244,-49.629 133.317,-23.12 v 0 c 20.543,9.712 37.732,23.033 50.428,37.934 v 0 c -11.77,-11.862 -26.396,-22.356 -43.311,-30.352 v 0 c -57.057,-26.972 -118.233,-15.464 -136.639,25.72 v 0 c -5.328,11.924 -6.462,25.033 -4.03,38.291 v 0 c -6.051,-16.695 -6.415,-33.596 0.235,-48.473" /></g></g></g></g></g></g></g></g></svg>